<?xml version="1.0" encoding="UTF-8" standalone="no"?>
<!-- Generator: Adobe Illustrator 16.0.0, SVG Export Plug-In . SVG Version: 6.00 Build 0)  -->

<svg
   xmlns:dc="http://purl.org/dc/elements/1.1/"
   xmlns:cc="http://creativecommons.org/ns#"
   xmlns:rdf="http://www.w3.org/1999/02/22-rdf-syntax-ns#"
   xmlns:svg="http://www.w3.org/2000/svg"
   xmlns="http://www.w3.org/2000/svg"
   xmlns:xlink="http://www.w3.org/1999/xlink"
   xmlns:sodipodi="http://sodipodi.sourceforge.net/DTD/sodipodi-0.dtd"
   xmlns:inkscape="http://www.inkscape.org/namespaces/inkscape"
   version="1.1"
   id="Layer_1_2_"
   x="0px"
   y="0px"
   width="405.869px"
   height="140.5px"
   viewBox="0 0 405.869 140.5"
   enable-background="new 0 0 405.869 140.5"
   xml:space="preserve"
   inkscape:version="0.48.4 r9939"
   sodipodi:docname="gdg-mark.svg"><metadata
   id="metadata4151"><rdf:RDF><cc:Work
       rdf:about=""><dc:format>image/svg+xml</dc:format><dc:type
         rdf:resource="http://purl.org/dc/dcmitype/StillImage" /><dc:title></dc:title></cc:Work></rdf:RDF></metadata><defs
   id="defs4149" /><sodipodi:namedview
   pagecolor="#ffffff"
   bordercolor="#666666"
   borderopacity="1"
   objecttolerance="10"
   gridtolerance="10"
   guidetolerance="10"
   inkscape:pageopacity="0"
   inkscape:pageshadow="2"
   inkscape:window-width="640"
   inkscape:window-height="480"
   id="namedview4147"
   showgrid="false"
   inkscape:zoom="0.85880545"
   inkscape:cx="202.93449"
   inkscape:cy="70.25"
   inkscape:window-x="0"
   inkscape:window-y="0"
   inkscape:window-maximized="0"
   inkscape:current-layer="Layer_1_2_" />
<g
   id="g4012"
   inkscape:export-xdpi="334.28"
   inkscape:export-ydpi="334.28">
	<g
   id="Color_Fill_1_xA0_Image_1_"
   transform="translate(-20.119 -17.861)">
		<path
   id="path6"
   display="none"
   fill="#F0F0F0"
   d="M390.85,82.805L357.6,27.428c-1.837-3.055-6.264-5.567-9.838-5.567h-0.113    L29.06,21.868c-3.321,0-4.654,2.193-3.358,4.956l12.626,21.027c0.113,0.21,0.167,0.479,0.278,0.705l20.564,34.23    c1.843,3.071,1.843,8.078,0,11.133l-12.129,20.433c-0.115,0.163-0.294,0.315-0.416,0.493l-20.698,34.45    c-1.84,3.056-0.419,5.566,3.143,5.566l318.59-0.008h0.113c3.573,0,8-2.495,9.837-5.564l12.681-21.097l20.565-34.255    c1.841-3.071,1.841-8.078,0-11.133H390.85z" />
		<g
   id="g4">
			<g
   id="g8"
   display="none">
				<defs
   id="defs4018">
					<path
   id="SVGID_1_"
   d="M390.85,82.805L357.6,27.428c-1.837-3.055-6.264-5.567-9.838-5.567h-0.113L29.06,21.868       c-3.321,0-4.654,2.193-3.358,4.956l12.626,21.027c0.113,0.21,0.167,0.479,0.278,0.705l20.564,34.23       c1.843,3.071,1.843,8.078,0,11.133l-12.129,20.433c-0.115,0.163-0.294,0.315-0.416,0.493l-20.698,34.45       c-1.84,3.056-0.419,5.566,3.143,5.566l318.59-0.008h0.113c3.573,0,8-2.495,9.837-5.564l12.681-21.097l20.565-34.255       c1.841-3.071,1.841-8.078,0-11.133H390.85z" />
				</defs>
				<clipPath
   id="SVGID_2_"
   display="inline">
					<use
   xlink:href="#SVGID_1_"
   overflow="visible"
   id="use4022" />
				</clipPath>
				<g
   id="g16"
   display="inline"
   clip-path="url(#SVGID_2_)">
					<path
   id="path18"
   fill="#E0E0E0"
   d="M183.143,40.707c0.126-0.053,0.445,0.08,0.534,0c0.285-0.256,0.479-1.101,0.809-1.608       c0.449-0.69,0.932-0.716,1.067-1.34c0.12-0.505-0.479-1.871-0.253-2.944c0.074-0.426,0.521-0.622,0.794-1.064       c0.501-0.85,0.841-1.468,1.336-2.409c0.529-0.992,0.661-2.493,0.268-4.292c0.397-0.317,0.751-0.669,1.074-1.068       c-0.561-2.317-0.011-4.565,1.069-6.427c0.237-0.416,0.382-0.872,0.534-1.068c0.883-1.237,3.031-1.853,2.95-3.753       c-0.795-1.362-2.843-1.117-4.294-0.522c-0.237-0.48-0.642-0.794-0.802-1.353c0.21-0.774,1.27-0.686,1.065-1.868       c-0.382-0.767-1.214-1.004-1.866-1.604c-1.101-1.026-1.521-1.944-3.212-2.409c-0.501-0.142-1.464-0.302-1.867-0.268       c-0.542,0.026-1.4,0.876-2.414,1.067c-0.727,0.138-1.521-0.153-1.874,0c-1.061,0.47-1.562,1.927-2.675,2.402       c-0.904,0.401-1.446-0.388-2.144,0.547c-0.674-1.109-2.347-1.22-4.286-1.079c-0.128-3.519-3.18-4.133-5.618-5.355h-4.275       c-1.336,1.442-4.233,1.308-6.435,1.883c-0.775,0.464-0.673,1.814-1.34,2.409c-0.534-0.277-0.415-1.189-1.328-1.079       c-2.794,1.236-3.722,4.32-4.03,8.035c0.245,1.102,1.989,0.705,2.152,1.875c-0.439,1.435-1.942,1.807-3.488,2.14       c-1.334-0.091-0.965-1.898-2.67-1.61c-1.755,1.405,2.056,3.328-0.278,4.551c-1.291-0.639-1.938-1.86-1.324-3.737       c-0.934-1.178-2.164-0.435-4.021-0.547c-0.807,1.543,0.604,2.422,0.802,3.753c1.276,0.162,2.364,0.494,2.68,1.604       c0.837,0.136,0.946-0.479,1.864-0.253c1.043,2.145,5.424,3.274,8.038,2.128c0.33-0.756,0.33-1.657,0-2.4       c-1.569-1.169-4.392,0.548-4.81-1.612c1.499-0.88,2.234,1.065,4.275,0.532c0.646,0.773,1.547,0.883,2.679,0.532       c0.783-1.11,1.051-2.317,2.138-3.206c0.342-0.277,1.099-0.237,1.606-0.531c0.442-0.257,0.554-0.821,1.076-0.814       c0.397-0.76,0.486-1.829,1.062-2.407c2.112-0.218,2.999-1.641,4.828-2.138c0.297,0.77,0.479,1.657,0.53,2.678       c-1.31,1.267-4.193,0.969-5.891,1.865c0.683,2.221-0.705,4.946,0.811,6.427c2.212,0.508,3.776,0.022,4.815,1.61       c0.559,0.85,0.903,3.417,0.814,5.36c-0.049,0.766-0.523,1.574-0.55,2.409c-0.021,0.773,0.346,1.649,0.271,2.136       c-0.124,0.8-1.043,1.411-0.802,2.142c-0.107,1.094,1.142,0.826,1.34,1.606c-0.735,1.026-1.956,2.128-2.146,4.021       c-0.141,1.427,0.593,4.6,1.071,6.15c0.39,1.312,0.499,2.119,1.34,2.681c0.269,0.168,0.74,0.051,1.068,0.268       c0.697,0.444,1.021,1.445,1.878,1.075c1.28-0.832,1.542-2.402,2.408-3.753c0.119-0.197,0.107-0.593,0.271-0.796       c0.074-0.12,0.472-0.174,0.523-0.279c0.423-0.762,0.256-1.736,1.076-2.402c0.713-0.585,2.674-0.494,4.018-1.351       c1.035-0.649,1.584-2.084,2.944-2.667c0.996-0.437,2.642-0.283,3.752-0.804c0.116-0.068,0.174-0.495,0.271-0.532       c0.138-0.061,0.406,0.084,0.53,0C182.981,41.171,183.063,40.753,183.143,40.707L183.143,40.707z" />
					<path
   id="path20"
   fill="#E0E0E0"
   d="M252.209,12.859c0.163,0.099,0.353,0.452,0.542,0.544c1.61,0.714,2.728,0.042,4.009-0.272       c0.5,0.674,0.5,1.83,1.609,1.875c0.909-0.34,1.54-0.97,1.876-1.875c-0.533-0.6-1.032-1.541-2.149-1.609       c-0.816-0.051-1.064,0.273-1.864,0.536c-0.872-1.178-1.863-2.246-3.754-2.413c-0.497-1.011-1.05-1.971-2.672-1.869       c-1.011,1.321-0.579,2.949,0.266,4.01C250.264,12.031,251.879,12.652,252.209,12.859L252.209,12.859z" />
					<path
   id="path22"
   fill="#E0E0E0"
   d="M140.577,15.276h1.876c0.141,0.834,0.475,1.496,0.802,2.141       c0.743,0.196,0.817-0.608,1.072-1.079c1.099-2.018-0.301-2.643-1.61-3.477c0.074-1.125-0.776-1.358-1.076-2.132       C138.88,10.471,139.319,14.311,140.577,15.276z" />
					<path
   id="path24"
   fill="#E0E0E0"
   d="M289.429,12.06c-0.739-1.792-4.583-1.034-5.882-0.272       C283.154,16.337,289.132,15.242,289.429,12.06z" />
					<path
   id="path26"
   fill="#E0E0E0"
   d="M293.171,11.523c-0.089-0.539-0.969-0.642-1.865-0.268       C291.253,13.062,293.316,12.297,293.171,11.523z" />
					<path
   id="path28"
   fill="#E0E0E0"
   d="M133.882,14.465c0.705-0.278,1.202-0.762,1.336-1.606c0.642-0.253,1.321-0.471,1.076-1.604       h-1.336c0.037,1.381-1.765,0.924-2.41,1.604C132.495,13.898,132.977,14.4,133.882,14.465z" />
					<path
   id="path30"
   fill="#E0E0E0"
   d="M230.547,15.812c0.643,0.071,0.503-0.15,1.069-0.536c0.969-0.673,0.922-0.705,1.336-1.611       c0.225-0.473,0.73-0.639,0.532-1.066c-0.775-0.668-1.336,1.154-2.408,1.066c-0.55-0.343-0.479-1.296-1.607-1.066       C228.318,14.179,229.364,15.662,230.547,15.812z" />
					<path
   id="path32"
   fill="#E0E0E0"
   d="M126.669,17.415c-0.204,1.982,0.831,2.732,1.596,3.746       c2.468-0.609,5.903,0.584,6.431-1.606c0.2-0.91-0.404-0.646-0.812-1.344c-0.268-0.448,0.07-1.375-0.794-1.328       c-1.117-0.215-0.509,1.282-1.614,1.064c-0.802-0.622-1.134-1.716-1.609-2.672c0.227-0.754,0.872-1.102,0.808-2.143       c-1.148-0.813-1.975-0.497-2.944,0c-1.059,0.54-2.958,1.14-2.958,2.143C125.172,16.23,126.353,16.395,126.669,17.415z" />
					<path
   id="path34"
   fill="#E0E0E0"
   d="M227.052,16.608v-1.6c-0.769-0.623-2.022-0.042-2.684,0.268       C224.61,16.438,225.764,17.278,227.052,16.608z" />
					<path
   id="path36"
   fill="#E0E0E0"
   d="M332.805,17.683c-1.392-0.8-2.565,0.238-3.488,0.265c-0.817,0.024-1.763-0.396-2.668-0.531       c-0.616-0.091-1.202,0.067-1.878,0c-1.347-0.152-2.73-0.674-4.013-0.809c-2.104-0.196-3.022,0.688-4.548,0.809       c-0.323,0.399-0.345,1.099-0.812,1.343c-1.043-0.203-1.655,0.752-2.405,1.066c-0.541,0.234-1.231,0.308-1.87,0.542       c-0.601,0.198-1.076,0.733-1.885,0.521c-1.117-0.547-1.787-2.001-3.206-2.128c-1.34-0.12-2.485,1.284-3.75,1.336       c-0.435,0.015-0.682-0.15-1.078-0.271c-0.367-0.122-1.095-0.156-1.329-0.27c-0.809-0.355-1.021-1.193-2.145-1.344       c-0.814-0.091-1.547,0.428-2.41,0.547c-1.254,0.166-2.344-0.335-3.478,0.26c-0.688,0.83,0.074,1.912,0,2.946       c-0.976,0.456-2.004,0.865-3.215,1.079c-0.835,0.31-0.757,1.55-1.87,1.596c-2.188-1.46-2.368-4.944-6.97-4.003       c-0.489,0.752-0.489,1.994-1.6,2.132c-1.206,0.065-1.718-0.745-2.953-0.803c-1.429-0.069-3.208,1.381-4.552,0       c0.36-4.09-2.594-6.836-6.152-5.356c-1.309-0.384-1.923-1.465-3.481-1.6c-0.029,0.417-0.681,0.207-0.532,0.804       c-0.95,0.876,0.245,2.188,0,2.948c-0.404,1.213-1.418,1.351-2.939,1.608c-1.31,2.114-4.614,2.934-3.49,6.686       c-0.539,0.521-1.766,0.381-1.875,1.339c-0.616,0.279-0.546,1.233-0.523,2.134c-1.21,0.505-1.849,1.569-3.222,1.883       c-1.042-0.738-1.447-2.119-3.206-2.145c-0.252,1.094-0.876,3.76-0.809,4.816c0.07,1.102,1.295,2.065,0.538,2.949       c-1.633-0.313-2.548-0.587-4.279-0.27c-0.161,0.471,0.319,1.57-0.272,1.613c-1.239,1.064-2.938,0.368-4.278,0.811       c-0.107,0.019-0.412,0.456-0.55,0.524c-0.345,0.183-0.764,0.044-1.058,0.268c-0.846,0.624-0.961,2.005-2.152,2.141       c-0.52-0.638-0.354-1.966-1.608-1.867c-1.099,0.524,0.713,3-1.064,3.205c-1.166-0.083-1.014-1.472-1.609-2.148       c-2.085-1.11-4.216-2.205-6.96-2.667c-0.743-0.84-1.293-1.661-2.137-1.875c-2.513-0.622-4.37,1.042-5.359,1.613       c-0.761,0.431-1.161,0.475-1.606,0.811c-0.549,0.397-1.006,0.749-1.344,1.066c-0.91,0.841-0.689,1.869-1.066,2.936       c-0.156,0.449-0.802,0.96-1.07,1.606c-0.305,0.737-0.227,1.588-0.535,2.146c-0.052,0.087-0.456,0.179-0.541,0.267       c-0.186,0.214-0.078,0.582-0.26,0.803c-1.383,1.722-2.925,1.967-4.016,3.484c0.086,2.143,0.227,4.232,1.328,5.355       c1.733,0.394,1.815-0.877,3.212-0.801c0.375,0.517,0.262,1.526,0.546,2.136c-0.397-0.387-1.755-0.387-2.156,0       c-0.604,1.139,0.16,2.051,0,3.484c-0.672,0.479-1.48,0.834-2.4,1.066c-0.709,0.72-1.073,1.792-2.146,2.14       c-0.113-1.328-2.52-3.857-3.48-5.884c-0.272-0.593,0.046-1.369-0.266-1.872c-0.518-0.865-1.755-0.93-2.414-0.543       c-0.751,0.509-0.493,1.996-0.53,3.218c-1.841,0.562-3.474,2.461-2.684,4.809c1.556,0.315,1.956-0.539,2.954-0.798       c0.383-0.858,0.113-2.377,1.332-2.407c0.52,1.105-0.938,3.234,0,4.818c0.904,0.171,2.494-0.339,2.952,0.271       c-0.514,0.915-1.803,1.067-2.679,1.607c0.05,1.773,2.588,2.196,2.141,4.02c-0.612,2.553-3.773,0.411-5.887,1.601       c-0.668,0.539-0.146,1.503-0.271,2.412c-0.192,1.466-0.876,2.683-0.271,3.741c0.915,1.034,2.227,0.571,2.412,1.875       c0.211,1.439-1.459,1.778-2.684,3.22c-0.56,0.669-0.627,2.692-0.79,2.94c-0.542,0.808-1.899,1.208-2.679,1.876       c-0.923,0.779-1.525,1.85-2.138,2.952c-0.408,0.705-0.987,1.687-1.082,2.399c-0.148,1.136,0.38,2.918,0.271,4.289       c-0.042,0.476-0.471,0.939-0.522,1.336c-0.49,2.892,1.226,3.377,2.398,4.828c0.437,0.538,0.49,0.845,0.806,1.331       c0.623,0.947,1.039,1.272,1.874,1.872c0.798,0.569,1.12,0.928,1.864,1.351c1.818,0.981,2.179,0.006,4.286,0       c0.752-0.012,1.556,0.345,2.149,0.254c0.58-0.076,1.196-0.588,1.873-0.805c2.665-0.859,3.127-0.366,4.821,1.345       c1.206-0.045,2.386-0.062,2.675,0.804c0.674,1.283-0.611,2.693-0.276,4.284c0.297,1.336,1.779,2.056,2.416,3.212       c0.342,0.621,0.857,1.724,1.078,2.67c0.165,0.801,0.397,2.402,0.258,3.215c-0.102,0.62-0.842,0.896-1.068,1.333       c-0.148,0.295-0.206,0.883-0.268,1.077c-0.683,2.205,0.082,3.75,0.802,5.357c0.345,0.781,0.876,1.562,1.072,2.41       c0.245,1.08,0.111,2.033,0.264,2.938c0.264,1.496,1.655,2.595,2.145,4.023c0.476,1.386-0.021,2.978,1.344,4.008       c1.93-0.278,4.06-0.22,5.614-0.531c0.323-0.07,1.837-0.775,1.882-0.809c0.767-0.733,1.472-1.284,2.412-2.408       c1.229-1.463,2.367-2.836,2.668-4.813c0.965-0.88,1.773-0.724,2.148-1.878c0.334-1.05-0.367-2.516,0-3.48       c0.627-1.647,3.748-2.181,4.542-3.478c0.787-1.247,0.659-4.377,0.273-5.349c-0.315-0.793-0.72-1.632-0.794-2.418       c-0.148-1.336,0.276-2.189,0.521-2.68c0.602-1.172,0.748-1.484,1.609-2.402c0.631-0.67,1.38-1.546,1.868-1.876       c1.551-1.031,3.388-2.612,4.03-4.004c0.039-0.111,0.471-0.165,0.522-0.271c0.834-1.475,1.667-3.303,1.88-5.097       c-1.653-1.755-5.75,1.837-6.696-0.804c0.482-0.838,1.812-0.901,2.946-1.334c1.206-0.467,2.812-1.066,3.752-1.606       c0.27-0.159,0.336-0.414,0.527-0.532c1.042-0.657,2.06-0.765,2.95-1.344c0.141-0.091,0.375-0.416,0.534-0.54       c0.816-0.66,1.288-1.163,1.874-2.14c0.493-0.816,0.915-1.48,0.812-2.141c-0.264-1.637-2.163-0.913-2.418-2.941       c2.731,0.451,4.789,0.507,7.768,0.266c1.394,1.195,2.899,2.28,3.744,4.016c0.992,0.087,1.841,0.306,2.414,0.801       c0.102,2.387,1.254,4.023,1.878,5.359c0.17,0.39,0.112,0.671,0.26,1.072c0.137,0.34,0.409,0.523,0.534,0.798       c0.604,1.245,1.05,2.441,1.878,3.477c0.996,0.197,1.151-0.456,2.145-0.265c-0.029,1.28,0.33,2.173,1.344,2.414       c0.39-0.249,1.306-1.344,0.522-1.873c0.146-1.219-1.425-0.716-1.336-1.872c-0.269-0.946,0.264-2.664,0.264-2.948       c0-0.089-0.315-0.588-0.264-1.074c0.121-0.97,2.397-2.932,3.212-3.744c1.944-1.944,2.891-3.266,5.63-3.206       c1.47,1.46,2.785,3.095,3.474,5.34c0.809,0.382,0.965-0.119,2.145,0c0.876,1.358,1.47,2.981,1.874,4.824       c1.035-0.115,0.738-1.59,2.138-1.344c2.549,0.888,1.811,2.969,4.026,2.95c0.771-0.011,1.588-1.072,1.864-1.339       c0.713-0.665,1.247-1.117,1.344-1.882c0.099-0.812-0.61-2.736-0.81-2.932c-0.114-0.122-0.151-0.433-0.271-0.54       c-0.482-0.473-1.212-0.608-1.6-1.07c-1.382-1.618-0.542-3.754,1.6-3.481c0.783,0.587-0.872,2.426,0.812,2.412       c1.177-0.07,0.513-1.978,1.062-2.672c2.158-0.92,4.09-1.408,5.358-2.675c1.223-1.229,1.206-1.696,1.874-3.485       c0.627-1.655,0.902-2.157,0.525-3.747c-0.104-0.486-0.14-1.333-0.264-1.615c-0.227-0.593-1.024-1.163-1.344-1.606       c-0.244-0.351-0.374-0.842-0.526-1.066c-0.416-0.6-0.514-0.313-0.536-1.064c-0.024-1.076,1.859-1.952,1.064-2.678       c-1.102-0.773-2.649,0.528-3.202-0.808c0-1.339,0.848-1.828,1.606-2.412c0.861,0.974,1.496,1.132,3.203,0.809       c0.601,1.275,1.718,2.199,2.423,3.476c0.367,0.686,0.2,1.702,1.072,2.143c0.791-0.096,1.354-0.426,1.861-0.803       c0.345-2.921-1.659-3.512-2.412-5.355c0.845-1.042,0.909-2.834,1.606-4.016c0.649-0.436,1.729-0.428,2.414-0.809       c0.74-0.97,1.399-2.477,1.878-4.007c0.412-1.367,1.084-3.655,1.063-4.823c-0.006-0.868-1.002-1.646-0.258-2.413       c0.315,1.386,0.72,2.675,1.874,3.211c2.048-2.82-1.822-4.847-2.156-7.755c-2.742-0.764-6.104,0.043-6.69-2.15       c-0.043-0.222,0.428-2.287,0.537-2.679c0.034-0.095,0.505-0.39,0.535-0.532c0.237-0.891,0.124-2.624,0.541-3.215       c0.802-1.162,2.203-0.891,3.472-1.336c0.971-0.332,1.41-1.142,2.144-1.068c1.167,0.054,1.806,0.941,2.954,0.274       c0.996-1.126-0.598-4.854,1.343-5.627c1.336-0.27,1.303,0.832,2.401,0.803c0.697-0.127,0.903-1.47,1.606-0.803       c-0.596,1.68-0.189,3.566-0.532,5.354c-0.156,0.834-0.705,1.603-0.802,2.406c-0.429,3.496,0.996,4.875,2.138,6.699       c0.809,1.298,1.468,2.964,2.678,3.479c1.336-1.041,0.764-3.532,1.072-5.084c0.081-0.417,0.53-0.683,0.53-1.075       c0.015-0.407-0.441-1.14-0.53-1.872c-0.104-0.804,0.126-1.759,0-2.147c-0.301-0.865-1.511-1.458-1.878-2.406       c-0.464-1.182,0.13-2.016-0.529-2.948c1.203-1.125,2.468-2.166,4.556-2.407c0.4-1.733,0.857-3.412,1.596-4.817       c0.486-0.674,1.822-0.488,1.882-1.617c-0.327-2.022-2.479-2.271-2.947-4.003c-0.089-0.339,0.268-1.132,0.264-1.609       c0-0.735-0.353-1.033-0.264-1.875c0.919-1.188,2.49-0.138,4.014-0.792c0.641-1.128-0.431-1.576-0.54-2.678       C333.735,19.237,333.347,18.384,332.805,17.683L332.805,17.683z M225.178,45.524c0.883,0.277,2.189,0.135,2.948,0.538       c0.019,1.443-1.683,1.178-2.948,1.338C224.791,47.043,224.791,45.895,225.178,45.524z M225.445,71.756       c1.373-0.211,1.09,1.238,2.131,1.353c1.233,0.051,1.233-1.103,1.613-1.884h0.813c-0.152,2.921,3.017,2.52,3.746,4.555       c-0.928,2.249-2.952,0.555-4.558,0.268c-1.821-0.328-3.202,0.608-5.347,0.807C222.288,75.397,223.727,72.342,225.445,71.756z        M212.592,59.711c-0.089-1.799,0.557-2.559,1.072-4.272c0.037-1.196-1.091-1.622-1.072-2.683c0.024-1.53,1.247-2.168,2.41-2.95       c0.223-1.109,0.198-2.471,1.071-2.946c0.438-0.069,0.463,0.256,0.801,0.272c0.301,2-1.373,2.016-1.872,3.211       c-0.066,2.578,0.612,4.391,2.412,5.096c-0.141,2.419-2.315,3.382-1.34,6.151c-0.79,0.574-1.503-0.098-2.408,0       c-1.321,0.148-2.724,1.587-3.752,0.271C210.221,60.554,211.956,60.681,212.592,59.711z M224.373,87.019       c-1.198-0.053-2.13-0.492-3.208-0.796c-1.126-0.329-2.474-0.904-2.952-0.81c-1.188,0.23-1.191,1.34-2.138,2.146       c-1.027-0.12-1.95-0.386-2.677-1.071c-0.854-0.829-2.871-0.861-4.288-1.868c0.159-1.493-0.121-2.56-0.794-3.219       c-2.245,0.124-4.014-0.046-5.896,0.268c-1.982,0.341-3.859,1.924-5.896,1.068c0.924-1.14,2.311-0.773,3.21-1.875       c0.416-0.482,0.245-1.519,0.542-2.132c0.362-0.719,1.14-1.036,1.606-1.61c0.572-0.7,0.646-1.488,1.344-1.871       c1.006-0.515,2.987-0.043,3.48-1.075c1.989,1.047,3.051,3.021,5.352,3.757c0.482,0.495,0.72,1.234,1.334,1.601       c2.959-2.375-2.078-3.524-2.678-5.616c0.043-0.317,0.49-0.232,0.806-0.279c0.824,1.321,2.694,1.603,3.748,2.682       c-0.004,0.629,0.456,0.796,0.266,1.615c0.937,0.42,1.567,3.688,2.95,3.74c2.258,0.085,1.058-1.978,1.336-3.486       c0.705-0.024,0.938-0.4,1.343,0c0.249,0.271,0.097,1.049,0.264,1.347c0.204,0.337,0.334,0.673,0.546,1.075       c0.404,0.805,0.749,0.889,1.336,1.604c2.761-0.428,4.182,0.918,6.423,0.27c0.453,1.555-0.285,3.185-1.072,4.279       C227.075,86.427,225.921,87.102,224.373,87.019L224.373,87.019z M236.957,102.551c-0.643-0.008-1.125-0.16-1.607-0.531       c-0.899-0.697-0.899-1.653-1.603-2.679c-0.293-0.412-0.911-0.746-1.067-1.072c-0.276-0.554-0.26-1.488-0.549-2.146       c-0.323-0.731-0.938-1.18-1.336-1.87c-0.115-0.198,0.105-0.594,0-0.812c-0.182-0.36-1.381-1.095-1.065-2.401h0.806       c0.546,0.639,0.765,1.36,1.332,2.148c0.447,0.622,1.276,1.14,1.607,1.869c0.182,0.406,0.039,0.937,0.272,1.334       C234.908,98.338,237.439,99.981,236.957,102.551L236.957,102.551z M238.556,72.306c0.988-0.899,1.64-2.117,3.761-1.887       c0.738,1.258-0.917,1.303-0.812,2.688c-0.028,1.037,1.148,1.554,1.606,2.409c0.312,0.555,0.312,1.327,0.542,1.865       c0.486,1.183,1.724,2.261,1.065,3.478c-1.27,0.8-2.709-0.227-3.478-0.796C242.043,75.779,238.877,75.462,238.556,72.306       L238.556,72.306z M245.796,93.441c-1.351-0.006-2.857-2.851-3.753-3.739c-0.309-0.396-0.309-0.678,0-1.071h0.798       c0.899,1.867,3.045,2.489,5.097,3.205C247.217,92.806,246.668,93.46,245.796,93.441z" />
					<path
   id="path38"
   fill="#E0E0E0"
   d="M291.576,17.143c0.155-0.957-0.798-0.819-1.607-0.807       C289.601,17.544,291.046,17.644,291.576,17.143z" />
					<path
   id="path40"
   fill="#E0E0E0"
   d="M209.116,26.788c1.761-0.118,1.005-2.74,2.413-3.221c0.35,0.723,0.575,1.568,1.874,1.345       c1.004-1.801-1.666-2.02-1.608-3.751c1.457-0.42,2.987-0.752,2.952-2.674c-0.729-0.977-2.562-0.836-4.288-0.804       c-0.724,0.521-1.221,1.28-2.138,1.609c-0.646,0.352-1.855,0.106-2.413,0.533c-0.865,2.096,0.953,3.383,1.87,4.548       C207.815,25.599,208.43,26.234,209.116,26.788z" />
					<path
   id="path42"
   fill="#E0E0E0"
   d="M168.421,119.68c-0.742-0.547-1.666-1.415-2.142-1.606       c-1.213-0.464-2.783-0.152-4.021-0.525c-0.553-0.18-1.021-0.821-1.598-1.066c-0.712-0.319-1.394-0.107-1.876-0.273       c-1.697-0.603-1.543-1.649-2.141-2.948c-0.29-0.623-0.694-1.487-1.076-1.876c-0.097-0.105-1.146-0.854-1.607-1.066       c-0.924-0.423-1.565-0.148-2.675-0.271c-1.15-0.119-2.457-1.915-3.208-2.409c-0.661-0.438-1.225-1.454-1.604-1.61       c-1.303-0.497-3.206,0.182-4.286,0c-1.202-0.196-1.585-0.935-2.414-1.068c-2.101-0.353-3.532,0.081-4.288,0.53       c-0.763,0.476-1.105,1.445-2.4,1.878c-0.449,0.148-1.036-0.169-1.344,0.271l-0.208,0.203c-0.128-0.032-0.264-0.043-0.396-0.008       l-0.197-0.198c-1.918-0.278-2.891-0.813-3.213-2.409c-0.203-1.021,0.871-2.178,0.272-3.21       c-0.546-1.155-3.024-0.382-3.754-1.343c-0.635-1.425,1.216-2.476,0.814-4.554c-2.775-1.113-2.775,1.385-4.022,2.146       c-2.979,1.814-5.264-1.08-4.82-4.544c0.078-0.655,0.938-3.854,1.066-4.021c0.449-0.595,2.772-1.577,3.222-1.61       c0.716-0.028,1.559,0.644,2.397,0.537c0.716-0.261,1.231-0.927,2.157-1.069c1.44-0.219,3.121,0.486,4.006,1.069       c0.29,1.578,0.29,3.462,2.146,3.479c1.484-1.769-0.678-3.461,0-5.621c0.141-0.461,0.644-0.713,1.066-1.072       c0.884-0.746,1.57-1.263,2.414-1.872c0.523-0.379,1.15-0.546,1.328-0.807c0.609-0.849,0.39-2.072,0.81-2.944       c0.258-0.533,0.911-1.034,1.336-1.612c1.109-1.441,1.616-2.05,3.474-2.401c0.497-1.532,1.18-3.084,2.95-3.211       c0.896-0.067,1.351,0.449,2.415,0.54c1.225-0.834,3.203-0.908,3.737-2.409c-1.365-0.253-1.993-0.273-2.664-1.344       c-0.214-0.34,0.141-1.246,0-1.875c-0.186-0.79-1.455-0.86-0.54-1.336c1.369,0.301,2.081,0.586,3.206,0.261       c0.938-0.253,2.268-1.019,2.957-0.536c-0.202,1.147-1.252,1.438-1.074,2.953c1.255,0.609,2.583,1.164,4.55,1.075       c0.911-1.989-1.062-2.911-1.606-4.3c0.765-1.703,0.608-3.124,0-4.005c-0.186-0.272-0.383-0.896-0.531-1.075       c-0.638-0.729-1.658-0.907-2.137-1.862c-0.498-0.995-0.346-2.111-0.54-2.953c-0.199-0.88-0.332-1.642-0.808-2.678       c-1.896-0.299-1.408,1.806-3.474,1.342c-0.755-0.816-0.396-1.71-0.276-2.948c-1.269-1.661-2.909-4.135-5.882-3.214       c-0.729,0.963-0.211,2.083-0.534,3.214c-0.237,0.845-0.991,1.481-1.068,2.415c-0.093,0.919,0.562,2.058,0.262,2.94       c-0.375,1.141-2.251,1.371-2.943,2.672c-0.803,1.509,0.529,2.377-1.072,3.479c-1.477-0.29-0.356-3.205-1.072-4.271       c-0.26-0.5-0.884-0.306-1.334-0.54c-1.309-0.688-2.368-2.223-3.481-2.952c-0.184-0.12-0.354-0.159-0.534-0.274       c-1.043-0.605-1.243-1.025-1.603-2.131c-0.936-2.858,1.237-4.179,2.938-5.624c1.329-1.122,2.694-2.434,4.55-2.402       c0.72,0.254,0.67,1.296,1.344,1.605c1.287-0.393,2.122-0.51,3.209-0.546c0.234-1.737-1.599-2.573-1.066-3.738       c1.637-0.789,2.719-1.336,3.208-2.952c0.379-1.216,0.898-2.427,1.61-3.212c1.834-0.321,2.312,0.719,2.68,1.872       c-0.015,1.155-1.418,0.907-1.08,2.422c1.184,0.344,1.939-1.267,2.416,0c-0.182,1.868-1.674,2.43-2.672,3.474       c-1.058,0.022-2.356-0.207-2.145,1.073c-0.111,1.438,2.244,0.428,2.949,1.059c0.574,0.606,0.62,1.997,1.325,2.682       c0.505,0.48,1.833,1.099,2.416,1.066c0.497-0.015,1.915-0.853,2.141-1.066c1.206-1.086,0.14-2.758-0.276-4.288       c1.01-0.027,0.82,1.155,2.152,0.809c1.169-0.729,1.847-1.125,1.874-2.145c0.012-0.689-0.839-1.267-1.339-1.871       c-0.612-0.728-1.262-1.188-1.34-1.875c0.104-1.057,0.594-1.588,0.53-2.409c-0.141-2.041-2.608-3.082-3.48-5.096       c-0.367-0.865-0.575-1.687-0.523-2.932c-0.812-1.186-2.598-0.752-4.03-1.071c-0.54-0.127-0.953-0.428-1.336-0.54       c-3.347-1.072-5.356,2.69-5.08,6.16c0.486,0.777,1.418,1.14,1.332,2.409c-0.046,0.781-0.775,1.928-1.864,1.875       c-0.367-1.094-1.659-2.088-1.882-3.473c-0.056-0.399,0.241-1.157,0.271-1.614c0.074-1.148-0.175-2.395,0.269-3.481       c1.451-0.964,4.275-0.559,3.752-3.485c-1.067-0.935-2.609-0.848-3.752,0c-1.232-1.954-2.612-0.988-3.754,0       c-1.302,1.146-1.514,1.36-1.061,2.681c0.077,0.246,0.077,0.762,0.267,1.076c0.348,0.617,1.276,0.751,1.336,1.603       c0.039,0.528-0.159,0.758-0.271,1.071c-0.516,1.514-1.266,1.514-2.68,2.147c-0.51,0.922-0.148,1.952-1.336,2.402       c-1.308,0.486-3.27-0.394-3.21-1.879c1.989,0.04,3.525-1.034,3.746-2.405c0.086-0.491-0.371-0.642-0.534-1.064       c-0.501-1.349-0.089-3.194,0.264-4.024c0.436-0.982,1.703-1.499,1.608-2.944c-1.69-1.049-2.657,1.208-4.278,1.066       c-1.835-0.146-2.438-1.752-2.668-4.284c-1.723-1.363-3.604-2.077-4.836-0.792c-1.317,1.373-4.327,3.63-3.204,5.62       c0.826,0.796,2.637-0.273,3.204,0.267c-0.429,1.017,0.189,2.119,0,2.946c-0.06,0.298-0.638,0.736-0.794,1.071       c-0.258,0.524,0.058,1.518-0.811,1.343c-1.253-0.083-1.575-1.105-2.142-1.875c-1.872-0.267-3.07-1.208-4.013-2.415       c-2.62-0.022-4.938,0.246-7.222,0.54c-0.566-0.517-1.021-1.125-1.349-1.875c-0.962-0.099-1.191-1.133-1.873-1.61       c-0.549-0.38-1.623-0.562-2.41-1.064c-0.111-0.083-0.143-0.44-0.271-0.547c-0.216-0.167-0.594-0.114-0.806-0.265       c-0.126-0.083-0.126-0.436-0.262-0.531c-0.248-0.187-0.59-0.076-0.801-0.27c-0.55-0.497-0.678-1.189-1.067-1.607       c-0.616-0.639-0.976-0.837-1.874-1.066c-1.562-0.404-2.876,0.238-3.752,0.532c-0.514,0.173-1.202,0.082-1.606,0.264       c-1.028,0.456-1.792,1.449-2.948,1.875c-0.939,0.344-2.021-0.19-2.676,0.801c-0.274,1.973,0.829,3.985,0,5.619       c-0.883,0.107-1.308-1.041-2.414-1.064c-0.229-0.007-0.935,0.365-1.34,0.531c-1.647,0.691-1.555,1.733-1.332,3.484       c0.482,1.043,2.702,0.332,2.943,1.605c-0.472,1.834-2.542,0.808-3.741,1.343c-0.198,0.084-0.649,0.69-1.074,1.064       c-0.479,0.424-1.161,0.783-1.343,1.072c-0.464,0.789-0.886,2.552-0.795,3.212c0.146,1.215,1.869,1.533,1.6,3.484       c0.681,0.486,1.837,0.486,1.868,1.6c-0.84,2.451-3.981,2.624-5.345,4.552c2.97,0.031,4.204-1.672,6.423-2.402       c1.067-0.274,0.802,0.789,1.878,0.525c1.585-0.821,0.82-3.58,2.401-4.013c1.477,1.138,4.167,0.255,5.354-0.543       c0.542,0.34,1.074,0.864,1.88,1.354c0.619,0.361,1.601,0.569,2.141,1.073c0.301,0.277,0.843,1.626,1.073,1.871       c1.042,1.075,0.716,2.292,1.058,4.009c0.077,0.333,0.145,0.599,0.276,1.07c0.116,0.428,0.192,1.127,0.267,1.337       c0.29,0.682,1.109,1.224,1.336,1.865c0.134,0.387-0.104,1.128,0,1.617c0.101,0.397,0.482,0.876,0.542,1.066       c0.472,1.588-0.015,2.468-0.271,3.753c0.427,1.153,1.439,1.763,1.603,2.953c0.07,0.425-0.204,0.851-0.26,1.323       c-0.184,1.6-0.243,1.771-0.53,2.687c-0.46,1.438-1.099,2.394-1.34,3.471c-0.367,1.603-0.342,4.42,0,5.629       c0.264,0.986,0.571,2.553,0.798,3.22c0.546,1.574,1.822,1.593,2.68,2.939c0.39,0.62,0.378,1.689,0.801,2.681       c0.527,1.195,1.83,1.942,1.336,3.75c1.185,0.865,1.373,2.728,2.95,3.214c0.253-1.247-1.039-2.338-0.28-3.214       c1.004,0.274,0.977,1.338,1.344,1.861c0.167,0.231,0.649,0.317,0.812,0.548c0.179,0.235,0.086,0.541,0.264,0.805       c0.523,0.754,1.41,1.169,1.606,2.136c0.106,0.499-0.271,1.55,0,2.142c0.676,1.493,5.199,3.775,6.962,4.022       c0.802,0.105,1.924-0.241,2.672,0c0.705,0.209,1.284,1.334,2.424,1.868c1.021,0.49,2.549,0.371,3.202,0.79       c1.227,0.813,1.425,2.331,2.148,2.954c0.414,0.371,1.043,0.516,1.605,0.808c1.482,0.766,2.19,1.434,3.484,0h0.26       c0.579,1.12,1.54,1.942,1.347,3.748c-0.117,0.922-0.783,1.356-1.347,2.15c-0.412,0.571-1.325,1.347-1.607,2.134       c-0.413,1.188,0.16,1.573,0,2.676c-0.112,0.766-0.644,1.336-0.534,1.872c0.145,0.726,1.503,1.933,2.142,2.948       c0.724,1.154,1.433,2.724,1.878,3.48c0.396,0.69,0.78,1.811,1.07,2.14c1.547,1.771,4.019,1.823,4.816,4.01       c1.076,2.969-0.111,8.68,0,11.521c0.049,0.988,0.338,1.998,0.271,2.94c-0.101,1.299-0.742,2.46-0.81,3.754       c-0.015,0.486,0.212,1.139,0.276,1.876c0.071,0.854-0.118,1.86,0,2.67c0.093,0.729,0.482,1.161,0.533,1.883       c0.141,2.468-0.482,5.096,0,7.224c0.204,0.918,0.935,1.857,1.332,2.681c0.475,0.939,0.846,1.845,1.347,2.672       c1.837,0.631,3.707,3.264,6.153,1.604c0.207-0.92-0.464-1.435-0.806-1.874c-0.49-0.642-0.981-0.837-1.34-1.604       c-0.237-0.503-0.594-1.216-0.526-2.136c0.066-1.259,1.425-2.149,1.336-3.485c-0.074-1.009-1.162-1.48-1.08-2.408       c0.881-1.358,1.718-2.748,1.612-5.088c1.299-0.128,1.12-1.74,1.876-2.41c1.099-0.411,2.453-0.569,3.21-1.336       c0.319-0.751,0.304-1.854,0.274-2.951c0.637-0.334,1.62-0.346,2.138-0.8c0.985-0.777,0.985-1.999,1.608-2.941       c0.326-0.51,1.021-0.872,1.34-1.347c0.373-0.546,0.879-1.34,1.074-1.865c0.516-1.456-0.167-2.132,0.523-3.215       c0.256-0.405,0.823-0.431,1.08-0.535c0.081-0.039,0.163-0.475,0.263-0.539c0.234-0.144,0.608-0.158,0.802-0.266       c0.315-0.175,0.49-0.404,0.806-0.538c0.479-0.189,1.447-0.022,2.137-0.532c1.433-1.045,2.205-4.023,2.416-6.424       c0.043-0.525-0.198-1.559,0-2.154c0.163-0.497,1.086-1.457,1.604-2.13c0.653-0.888,1.398-1.358,1.6-2.416       C170.718,120.757,169.691,120.636,168.421,119.68L168.421,119.68z" />
					<path
   id="path44"
   fill="#E0E0E0"
   d="M238.035,36.691c-0.309-1.708-1.484-2.128-1.609-3.743       c-0.042-0.579,0.371-1.155,0.535-1.872c0.182-0.812,0.031-1.579,0.278-2.148c0.074-0.194,0.599-0.498,0.794-0.804       c0.264-0.436,0.315-1.05,0.525-1.335c0.988-1.278,2.932-1.938,2.948-3.474c-0.223-0.578-0.651-0.954-1.605-0.819       c-0.431,0.672-0.798,1.049-1.606,1.611c-1.385,0.975-2.034,0.933-2.943,2.409c-0.899,1.458-0.794,2.578-1.072,4.828       c-0.171,1.427-0.653,3.061-0.528,3.471C234.132,36.098,236.32,37.262,238.035,36.691L238.035,36.691z" />
					<path
   id="path46"
   fill="#E0E0E0"
   d="M189.585,46.064c-2.037-0.502-4.731-0.016-6.443,0c-0.309,1.537,0.116,3.522,1.608,4.016       C187.195,50.899,191.155,48.332,189.585,46.064z" />
					<path
   id="path48"
   fill="#E0E0E0"
   d="M316.464,63.727c-0.037,0.586,0.223,0.848,0.811,0.812       C317.32,63.956,317.052,63.682,316.464,63.727z" />
					<path
   id="path50"
   fill="#E0E0E0"
   d="M317.283,71.224c1.614-0.611,3.422-1.035,3.748-2.94c-1.156-0.532-2.18-1.208-3.748-1.336       C317.357,68.483,316.107,70.198,317.283,71.224z" />
					<path
   id="path52"
   fill="#E0E0E0"
   d="M316.218,77.382c-0.49,0.601-0.787,1.231-1.352,1.609       c-1.386,0.577-3.099,1.482-3.477,2.949c-0.268,1.057-0.653,2.295,1.068,2.679c0.649-0.515,0.486-1.84,1.344-2.143       c1.139-0.259,2.041-0.88,2.946-1.342c1.043-0.53,2.011-0.957,2.946-1.607c-0.167-3.05,0.802-7.222-2.141-7.499       c-0.383,1.284,0.318,2.62,0,3.752C317.349,76.464,316.604,76.896,316.218,77.382L316.218,77.382z" />
					<path
   id="path54"
   fill="#E0E0E0"
   d="M206.968,77.382c-0.4,0.408-0.471,1.835,0.535,1.609       C207.919,78.584,207.985,77.153,206.968,77.382z" />
					<path
   id="path56"
   fill="#E0E0E0"
   d="M211.264,81.399c0.905,0.117,1.514-0.084,1.326-1.067       C211.811,80.356,211.083,80.426,211.264,81.399z" />
					<path
   id="path58"
   fill="#E0E0E0"
   d="M304.686,92.109c-0.382,0.386-0.382,1.762,0,2.141c1.144-0.033,1.184-1.312,0.81-2.141       H304.686z" />
					<path
   id="path60"
   fill="#E0E0E0"
   d="M135.487,97.464c-0.26-1.435-1.74-1.647-3.208-1.863v0.191       c-0.363-0.15-0.712-0.312-1.066-0.429v-0.306c0.039-0.442-1.649-0.442-1.607,0c0.557,0.149,0.758,0.668,1.607,0.543v-0.223       l1.066,0.422v0.324C132.796,97.039,134.035,98.369,135.487,97.464z" />
					<path
   id="path62"
   fill="#E0E0E0"
   d="M137.096,99.07c1.05,0.767,2.85,0.518,3.48-0.534       C140.265,97.235,136.666,96.757,137.096,99.07z" />
					<path
   id="path64"
   fill="#E0E0E0"
   d="M306.566,98.536c-2.872-0.097-1.362,4.412-0.533,5.358       c0.771,0.022,1.752-0.152,2.149,0.253c-1.036,0.916-0.142,2.278,0,3.223c0.104,0.755-0.097,1.445,0,1.604       c0.3,0.591,1.712,1.459,2.134,1.344c1.635-0.416,1.176-3.138-0.273-4.01c0.045-0.666,0.045-1.305-0.263-1.612       c-0.861-0.928-2.183-1.492-2.672-2.95C306.757,100.736,307.514,99.436,306.566,98.536L306.566,98.536z" />
					<path
   id="path66"
   fill="#E0E0E0"
   d="M300.144,123.434c0.097-1.128-1.148-1.773-1.868-1.868       c-0.758-0.113-1.433,0.406-2.138,0.274c-0.383-0.095-1.052-0.423-1.344-0.551c-0.486-0.195-1.215-0.247-1.336-0.802       c0.008-0.88,0.453-1.332,0.264-2.414c-0.946-0.883-1.455-1.109-1.868-2.134c-0.55-1.328-0.29-4.13-0.804-5.08       c-0.462-0.868-1.844-1.188-2.414-1.886c-0.301-0.359-0.367-1.078-0.53-1.336c-0.327-0.516-0.497-0.493-0.806-1.064       c-0.07-0.219-0.223-0.325-0.534-0.268c-1.233,2.614,2.583,3.54,1.34,6.16c-1.386-0.31-1.659-1.744-3.481-1.61       c-0.575,1.39,1.15,2.193,1.874,3.206c0.082,0.119-0.07,0.404,0,0.531c0.03,0.093,0.464,0.174,0.531,0.261       c0.081,0.129-0.06,0.416,0,0.548c0.046,0.095,0.475,0.159,0.532,0.272c0.404,0.698,0.757,2.088,1.072,2.399       c0.898,0.942,2.071,2.119,2.95,2.683c0.342,0.234,0.95,0.264,1.344,0.531c0.712,0.526,0.935,1.343,1.603,1.606       c0.301,0.124,1.166-0.134,1.867,0c0.493,0.104,0.935,0.497,1.34,0.54C298.604,123.533,299.283,123.358,300.144,123.434z" />
					<path
   id="path68"
   fill="#E0E0E0"
   d="M302.291,109.78c-1.833,1.827-3.581,3.744-6.15,4.816       c-0.904,3.281,2.731,5.366,5.882,4.558c0.579-1.392,1.87-2.946,2.145-4.3c0.138-0.673-0.319-1.363-0.271-2.128       c0.054-0.864,0.79-1.252,0.532-2.148C303.816,110.221,303.542,109.509,302.291,109.78L302.291,109.78z" />
					<path
   id="path70"
   fill="#E0E0E0"
   d="M305.503,116.209c-0.989,0.752-1.039,2.913-0.26,4.014h2.666       c0.278-0.841-0.167-2.241,0-3.744C307.48,116.022,306.337,116.259,305.503,116.209L305.503,116.209z" />
					<path
   id="path72"
   fill="#E0E0E0"
   d="M324.768,118.074c-1.336-0.468-2.694-0.895-3.748-0.79       c-0.702,0.052-1.336,0.66-2.134,0.522c-0.523-0.467-0.772-1.204-1.344-1.599c-0.716,0-1.54-0.108-1.874,0.271       c0.258,1.132,0.546,2.03,1.336,2.676c0.305,0.244,0.928,0.1,1.332,0.26c0.427,0.178,0.728,0.638,1.08,0.809       c0.49,0.241,0.938,0.028,1.336,0.266c0.872,0.525,0.755,1.668,1.07,2.688c1.309,0.304,2.071,1.221,3.474,1.062       c0.977-0.104,1.348-1.195,2.412-1.062c1.418,0.452,1.531,2.208,3.761,1.862c0.42-1.306-1.792-2.076-1.614-4.011       C328.298,119.881,326.937,118.857,324.768,118.074z" />
					<path
   id="path74"
   fill="#E0E0E0"
   d="M330.677,136.818c-0.252-0.445-0.278-1.236-0.534-1.604       c-0.586-0.827-1.421-1.178-1.878-2.148c-0.823-1.709-0.742-3.646-1.603-4.546c-0.616-0.639-0.591-1.783-1.607-1.874       c-1.547,0.868-0.563,4.264-2.145,5.088c-1.666-0.301-2.869-1.062-3.478-2.412c0.234-0.653,0.624-1.158,0.527-2.138       c-1.527-0.765-3.119-1.327-4.552-0.802c-1.396,0.501-1.468,2.422-2.946,2.67c-0.588-0.21-1.035-0.569-1.866-0.532       c-1.348,0.893-2.028,2.435-3.752,2.942c-0.857,4.136-6.216,2.201-8.032,5.088c-0.661,1.049-0.828,3.008-0.806,4.284       c0.039,1.808,0.924,3.616,0.806,5.628c-0.058,0.92-0.841,1.829-0.533,2.938c0.383,0.156,0.653,0.416,0.806,0.806       c1.354,0.468,2.527-0.828,4.002-1.074c0.608-0.095,1.449,0.209,2.158,0c0.802-0.254,1.418-1.056,2.13-1.332       c0.668-0.257,1.663-0.405,2.414-0.54c3.288-0.594,4.884,0,5.618,2.675c1.21,0.576,2.099,1.262,2.672,2.42       c0.447,0.868,0.353,1.74,0.82,2.666c1.028,1.193,3.429,1.032,5.08,1.609c0.651-0.765,2.019-0.841,2.948-1.336       c0.841-0.833,0.759-1.911,1.334-2.939c0.063-0.107,0.453-0.159,0.538-0.272c0.152-0.21,0.146-0.614,0.262-0.804       c0.299-0.451,0.552-0.976,0.81-1.345c0.596-0.845,1.454-1.34,1.868-2.136c0.148-0.278,0.208-0.884,0.269-1.072       c0.356-1.045,0.965-2.401,1.078-3.474c0.332-3.049-0.823-4.071-1.879-5.898C331.075,137.115,330.782,137,330.677,136.818       L330.677,136.818z" />
					<path
   id="path76"
   fill="#E0E0E0"
   d="M242.593,126.915c-0.82,0.577-0.976,1.457-1.872,2.14c-0.475,0.365-1.243,0.268-1.612,0.54       c-1.28,0.911-0.763,2.006-1.07,3.746c-0.13,0.72-0.724,1.28-0.795,2.134c-0.13,1.28-0.023,1.981,0.795,2.958       c2.92,0.594,3.581-2.639,4.286-4.554c0.786-2.145,2.148-5.036,1.07-6.964H242.593z" />
					<path
   id="path78"
   fill="#E0E0E0"
   d="M348.879,155.565h-0.534c0.152,2.639-1.938,3.069-1.344,6.152h-2.404       c-0.783,0.832-1.433,1.882-2.406,2.676c-1.756,1.433-5.045,1.942-4.021,5.09c2.744,1.252,3.574-1.932,4.55-2.941       c0.13-0.128,0.676-0.182,0.809-0.267c0.438-0.297,0.598-0.645,0.795-1.076c0.039-0.076,0.471-0.186,0.541-0.268       c0.728-0.876,1.329-1.651,1.874-2.414c1.021-0.109,1.934-0.781,2.409-1.336c0.281-0.313,0.308-0.784,0.534-1.062       c0.857-1.043,1.38-0.997,1.343-1.884C350.958,156.996,349.496,156.8,348.879,155.565L348.879,155.565z" />
					<path
   id="path80"
   fill="#E0E0E0"
   d="M321.823,159.041c-0.805,0.751-1.151,2.818-0.267,3.753       c2.031,0.074,2.761-1.172,2.679-3.208C323.467,159.354,322.577,159.259,321.823,159.041z" />
				</g>
			</g>
			<g
   id="g82">
				<g
   id="g84">
					
						<radialGradient
   id="path91_1_"
   cx="50.5592"
   cy="92.7848"
   r="155.3605"
   gradientTransform="matrix(1 0 0 -1 -28.479 111.9153)"
   gradientUnits="userSpaceOnUse">
						<stop
   offset="0"
   style="stop-color:#FFCD4D"
   id="stop4060" />
						<stop
   offset="1"
   style="stop-color:#F6C338"
   id="stop4062" />
					</radialGradient>
					<path
   id="path91"
   fill="url(#path91_1_)"
   d="M72.808,105.353L43.002,154.86h15.052c3.566,0,7.989-2.497,9.826-5.566       l12.683-21.101c1.499-3.095,1.447-7.592-0.266-10.445L72.808,105.353z" />
					
						<radialGradient
   id="path98_1_"
   cx="50.5641"
   cy="92.7838"
   r="155.3581"
   gradientTransform="matrix(1 0 0 -1 -28.479 111.9153)"
   gradientUnits="userSpaceOnUse">
						<stop
   offset="0"
   style="stop-color:#0DA960"
   id="stop4066" />
						<stop
   offset="1"
   style="stop-color:#03914B"
   id="stop4068" />
					</radialGradient>
					<path
   id="path98"
   fill="url(#path98_1_)"
   d="M59.181,82.801c1.841,3.056,1.841,8.065,0,11.133l-33.472,55.968       c-1.297,2.765,0.046,4.958,3.368,4.958H43l29.809-49.509L59.181,82.801z" />
					
						<radialGradient
   id="path105_1_"
   cx="50.5602"
   cy="92.7819"
   r="155.3539"
   gradientTransform="matrix(1 0 0 -1 -28.479 111.9153)"
   gradientUnits="userSpaceOnUse">
						<stop
   offset="0"
   style="stop-color:#4387FD"
   id="stop4072" />
						<stop
   offset="1"
   style="stop-color:#4683EA"
   id="stop4074" />
					</radialGradient>
					<path
   id="path105"
   fill="url(#path105_1_)"
   d="M29.079,21.861c-3.574,0-4.995,2.51-3.154,5.567l54.372,90.319       c1.711,2.854,1.765,7.351,0.266,10.445l13.218-21.998L43.009,21.861H29.079L29.079,21.861z" />
					
						<radialGradient
   id="path112_1_"
   cx="50.5611"
   cy="92.7799"
   r="155.3555"
   gradientTransform="matrix(1 0 0 -1 -28.479 111.9153)"
   gradientUnits="userSpaceOnUse">
						<stop
   offset="0"
   style="stop-color:#E04A3F"
   id="stop4078" />
						<stop
   offset="1"
   style="stop-color:#CD372D"
   id="stop4080" />
					</radialGradient>
					<path
   id="path112"
   fill="url(#path112_1_)"
   d="M101.141,82.801L67.879,27.428c-1.837-3.055-6.26-5.567-9.826-5.567H43.009       l50.771,84.334l7.362-12.261C102.981,90.867,102.981,85.857,101.141,82.801z" />
					
						<linearGradient
   id="path119_1_"
   gradientUnits="userSpaceOnUse"
   x1="116.8492"
   y1="6.4167"
   x2="79.4249"
   y2="6.4167"
   gradientTransform="matrix(1 0 0 -1 -28.479 111.9153)">
						<stop
   offset="0"
   style="stop-color:#231F20;stop-opacity:0.2"
   id="stop4084" />
						<stop
   offset="1"
   style="stop-color:#F1F2F2;stop-opacity:0.25"
   id="stop4086" />
					</linearGradient>
					<path
   id="path119"
   fill="url(#path119_1_)"
   d="M80.296,117.748L59.179,82.801c1.843,3.056,1.843,8.065,0,11.133l-7.427,12.378       l28.808,21.885C82.057,125.098,82.007,120.601,80.296,117.748z" />
				</g>
				
					<radialGradient
   id="path128_1_"
   cx="92.2984"
   cy="23.5544"
   r="54.4061"
   gradientTransform="matrix(1 0 0 -1 -28.479 111.9153)"
   gradientUnits="userSpaceOnUse">
					<stop
   offset="0"
   style="stop-color:#FFFFFF;stop-opacity:0.1"
   id="stop4090" />
					<stop
   offset="0.0896"
   style="stop-color:#FFFFFF;stop-opacity:0.091"
   id="stop4092" />
					<stop
   offset="1"
   style="stop-color:#FFFFFF;stop-opacity:0"
   id="stop4094" />
				</radialGradient>
				<path
   id="path128"
   fill="url(#path128_1_)"
   d="M101.141,82.801L67.879,27.428c-1.837-3.055-6.26-5.567-9.826-5.567H29.079      c-3.574,0-4.995,2.51-3.154,5.567l33.259,55.373c1.841,3.056,1.841,8.065,0,11.133l-33.474,55.968      c-1.297,2.765,0.046,4.958,3.368,4.958h28.975c3.566,0,7.989-2.497,9.827-5.566l25.899-43.103l7.363-12.257      C102.981,90.867,102.981,85.857,101.141,82.801z" />
			</g>
			<g
   id="g130"
   display="none">
				<g
   id="g132"
   display="inline">
					<path
   id="path134"
   fill="#4D4D4D"
   d="M277.668,110.667" />
					<path
   id="path136"
   fill="#4D4D4D"
   d="M163.084,82.963h27.216v34.021c-7.395,2.536-15.508,3.792-24.381,3.792       c-9.715,0-17.227-2.816-22.54-8.451c-5.314-5.635-7.956-13.689-7.956-24.142c0-10.173,2.896-18.088,8.717-23.759       c5.812-5.678,13.945-8.475,24.418-8.475c3.974,0,7.713,0.357,11.229,1.117c3.541,0.74,6.617,1.68,9.237,2.819l-5.42,13.369       c-4.535-2.242-9.53-3.359-14.97-3.359c-4.952,0-8.81,1.636-11.53,4.857c-2.733,3.237-4.074,7.852-4.074,13.87       c0,5.898,1.217,10.394,3.695,13.488c2.437,3.099,5.975,4.62,10.613,4.62c2.539,0,4.871-0.221,6.992-0.726v-9.871h-11.248       V82.963H163.084z" />
					<path
   id="path138"
   fill="#4D4D4D"
   d="M235.468,87.64c0-5.796-1.139-10.073-3.418-12.868c-2.278-2.777-5.773-4.178-10.431-4.178       h-4.956v35.335h3.8c5.193,0,8.989-1.501,11.389-4.518C234.27,98.432,235.468,93.816,235.468,87.64 M253.151,87.043       c0,10.51-2.878,18.627-8.691,24.324c-5.773,5.694-13.927,8.533-24.419,8.533h-20.404V56.826h21.818       c10.111,0,17.929,2.6,23.438,7.775c5.521,5.156,8.255,12.65,8.255,22.441" />
					<path
   id="path140"
   fill="#4D4D4D"
   d="M286.238,82.963h27.237v34.021c-7.397,2.536-15.526,3.792-24.38,3.792       c-9.712,0-17.227-2.816-22.544-8.451c-5.296-5.635-7.949-13.689-7.949-24.142c0-10.173,2.893-18.088,8.71-23.759       c5.796-5.678,13.945-8.475,24.421-8.475c3.956,0,7.715,0.357,11.252,1.117c3.495,0.74,6.575,1.68,9.191,2.819l-5.392,13.369       c-4.538-2.242-9.537-3.359-14.97-3.359c-4.98,0-8.813,1.636-11.552,4.857c-2.698,3.237-4.061,7.852-4.061,13.87       c0,5.898,1.222,10.394,3.678,13.488c2.461,3.099,5.997,4.62,10.634,4.62c2.538,0,4.878-0.221,6.999-0.726v-9.871h-11.274       L286.238,82.963L286.238,82.963z" />
				</g>
			</g>
		</g>
	</g>
</g>
<g
   id="g4103">
	<path
   fill="#FFFFFF"
   d="M248.443,41.947c0,6.001-1.64,10.624-4.917,13.87c-3.28,3.246-7.888,4.868-13.826,4.868h-11.541V24.735   h12.346c5.728,0,10.149,1.475,13.265,4.426C246.885,32.112,248.443,36.374,248.443,41.947z M238.437,42.292   c0-3.296-0.648-5.737-1.939-7.328c-1.295-1.59-3.258-2.385-5.895-2.385h-2.808v20.14h2.148c2.929,0,5.077-0.856,6.442-2.57   C237.754,48.437,238.437,45.817,238.437,42.292z"
   id="path4105" />
	<path
   fill="#FFFFFF"
   d="M264.625,61.178c-4.604,0-8.181-1.233-10.727-3.701c-2.546-2.467-3.818-5.979-3.818-10.537   c0-4.705,1.18-8.314,3.538-10.832c2.358-2.517,5.729-3.774,10.104-3.774c4.163,0,7.381,1.095,9.651,3.283   c2.27,2.188,3.403,5.34,3.403,9.454v4.279h-17.058c0.065,1.559,0.631,2.779,1.698,3.664c1.065,0.885,2.516,1.328,4.354,1.328   c1.676,0,3.218-0.16,4.626-0.48c1.406-0.318,2.932-0.863,4.575-1.635v6.91c-1.499,0.771-3.043,1.304-4.639,1.599   C268.74,61.03,266.837,61.178,264.625,61.178z M264.062,38.874c-1.12,0-2.062,0.356-2.818,1.07c-0.755,0.713-1.2,1.832-1.33,3.356   h8.201c-0.033-1.345-0.412-2.418-1.136-3.222S265.284,38.874,264.062,38.874z"
   id="path4107" />
	<path
   fill="#FFFFFF"
   d="M286.421,60.686l-10.542-27.861h9.956l4.685,16.476c0.017,0.082,0.049,0.221,0.099,0.418   c0.048,0.196,0.097,0.43,0.145,0.701c0.049,0.27,0.093,0.558,0.134,0.859c0.041,0.304,0.063,0.587,0.063,0.85h0.17   c0-0.853,0.146-1.778,0.438-2.779l4.905-16.525h9.933l-10.543,27.861H286.421z"
   id="path4109" />
	<path
   fill="#FFFFFF"
   d="M316.758,60.686h-9.494V24.735h21.083v7.794h-11.589v6.861h10.688v7.795h-10.688V60.686z"
   id="path4111" />
	<path
   fill="#FFFFFF"
   d="M343.992,61.178c-4.605,0-8.179-1.233-10.725-3.701c-2.546-2.467-3.818-5.979-3.818-10.537   c0-4.705,1.18-8.314,3.536-10.832c2.36-2.517,5.727-3.774,10.105-3.774c4.163,0,7.381,1.095,9.651,3.283   c2.268,2.188,3.403,5.34,3.403,9.454v4.279h-17.06c0.067,1.559,0.631,2.779,1.696,3.664s2.52,1.328,4.356,1.328   c1.678,0,3.218-0.16,4.624-0.48c1.41-0.318,2.936-0.863,4.575-1.635v6.91c-1.495,0.771-3.039,1.304-4.635,1.599   S346.204,61.178,343.992,61.178z M343.431,38.874c-1.124,0-2.063,0.356-2.82,1.07c-0.753,0.713-1.198,1.832-1.328,3.356h8.201   c-0.033-1.345-0.412-2.418-1.136-3.222S344.652,38.874,343.431,38.874z"
   id="path4113" />
	<path
   fill="#FFFFFF"
   d="M379.895,52.129c0,2.983-1.01,5.237-3.028,6.762c-2.015,1.524-4.913,2.287-8.688,2.287   c-2.048,0-3.829-0.11-5.344-0.332c-1.514-0.221-3.058-0.627-4.639-1.217v-7.697c1.48,0.656,3.106,1.197,4.869,1.623   c1.767,0.427,3.34,0.639,4.724,0.639c2.067,0,3.099-0.475,3.099-1.426c0-0.491-0.289-0.931-0.864-1.315   c-0.579-0.385-2.26-1.136-5.04-2.249c-2.538-1.05-4.312-2.243-5.321-3.579c-1.009-1.336-1.514-3.028-1.514-5.078   c0-2.591,0.994-4.606,2.979-6.049c1.982-1.442,4.791-2.164,8.417-2.164c1.821,0,3.536,0.201,5.14,0.603   c1.599,0.401,3.266,0.987,4.987,1.758l-2.587,6.197c-1.269-0.574-2.608-1.062-4.026-1.463c-1.414-0.402-2.567-0.603-3.462-0.603   c-1.562,0-2.346,0.385-2.346,1.156c0,0.475,0.274,0.881,0.816,1.217c0.546,0.336,2.119,1.021,4.725,2.053   c1.937,0.804,3.38,1.591,4.33,2.361c0.954,0.771,1.651,1.677,2.101,2.718C379.669,49.37,379.895,50.637,379.895,52.129z"
   id="path4115" />
	<path
   fill="#FFFFFF"
   d="M395.733,53.58c1.288,0,2.824-0.32,4.612-0.96v7.009c-1.283,0.557-2.508,0.955-3.674,1.192   c-1.161,0.237-2.523,0.356-4.085,0.356c-3.206,0-5.515-0.79-6.933-2.373c-1.413-1.582-2.122-4.012-2.122-7.291V40.03h-3.344v-3.911   l4.249-3.024l2.464-5.853h6.245v5.583h6.784v7.206h-6.784v10.844C393.146,52.678,394.011,53.58,395.733,53.58z"
   id="path4117" />
</g>
<g
   id="g4119">
	<path
   fill="#FFFFFF"
   d="M103.12,84.118h10.066c4.67,0,8.043,0.682,10.123,2.041c2.08,1.36,3.119,3.511,3.119,6.448   c0,1.979-0.509,3.625-1.528,4.941c-1.021,1.313-2.49,2.141-4.409,2.48v0.231c2.383,0.449,4.134,1.334,5.255,2.655   c1.121,1.323,1.681,3.111,1.681,5.37c0,3.047-1.062,5.431-3.189,7.154c-2.124,1.726-5.082,2.587-8.871,2.587H103.12V84.118z    M108.665,98.127h5.332c2.319,0,4.014-0.367,5.08-1.102c1.067-0.733,1.6-1.981,1.6-3.744c0-1.594-0.575-2.746-1.728-3.457   s-2.979-1.067-5.484-1.067h-4.8V98.127z M108.665,102.627v10.739h5.889c2.319,0,4.071-0.445,5.255-1.334   c1.182-0.889,1.773-2.294,1.773-4.21c0-1.763-0.603-3.069-1.809-3.919c-1.206-0.852-3.037-1.276-5.498-1.276H108.665z"
   id="path4121" />
	<path
   fill="#FFFFFF"
   d="M147.098,118.027l-1.091-3.572h-0.186c-1.238,1.562-2.482,2.626-3.733,3.189   c-1.254,0.564-2.861,0.847-4.824,0.847c-2.521,0-4.49-0.682-5.904-2.041c-1.414-1.36-2.122-3.286-2.122-5.774   c0-2.645,0.983-4.639,2.946-5.984c1.963-1.345,4.954-2.079,8.977-2.204l4.429-0.139v-1.367c0-1.641-0.384-2.865-1.148-3.678   c-0.765-0.812-1.952-1.218-3.559-1.218c-1.315,0-2.575,0.193-3.781,0.581c-1.206,0.386-2.366,0.843-3.479,1.367l-1.763-3.896   c1.392-0.727,2.915-1.278,4.57-1.658c1.653-0.379,3.214-0.568,4.684-0.568c3.262,0,5.726,0.711,7.388,2.134   c1.663,1.424,2.494,3.657,2.494,6.704v17.278H147.098z M138.979,114.316c1.979,0,3.569-0.553,4.767-1.659   c1.198-1.104,1.798-2.655,1.798-4.649v-2.227l-3.294,0.139c-2.565,0.093-4.433,0.521-5.602,1.288   c-1.167,0.765-1.751,1.937-1.751,3.514c0,1.144,0.341,2.028,1.021,2.655C136.598,114.003,137.619,114.316,138.979,114.316z"
   id="path4123" />
	<path
   fill="#FFFFFF"
   d="M168.762,91.911c1.099,0,2.002,0.078,2.713,0.232l-0.532,5.08c-0.774-0.186-1.577-0.278-2.412-0.278   c-2.181,0-3.947,0.711-5.302,2.134c-1.351,1.421-2.027,3.27-2.027,5.542v13.406h-5.45V92.375h4.268l0.719,4.524h0.278   c0.85-1.531,1.959-2.746,3.326-3.643C165.713,92.36,167.185,91.911,168.762,91.911z"
   id="path4125" />
	<path
   fill="#FFFFFF"
   d="M183.725,118.491c-3.882,0-6.832-1.132-8.849-3.397c-2.018-2.266-3.026-5.517-3.026-9.752   c0-4.314,1.054-7.632,3.165-9.951s5.162-3.479,9.151-3.479c2.705,0,5.14,0.503,7.305,1.509l-1.646,4.383   c-2.305-0.896-4.208-1.346-5.707-1.346c-4.438,0-6.656,2.947-6.656,8.838c0,2.876,0.553,5.036,1.657,6.481   c1.105,1.447,2.728,2.169,4.861,2.169c2.427,0,4.722-0.604,6.888-1.81v4.756c-0.975,0.571-2.016,0.981-3.121,1.229   C186.643,118.366,185.302,118.491,183.725,118.491z"
   id="path4127" />
	<path
   fill="#FFFFFF"
   d="M205.252,118.491c-3.989,0-7.109-1.164-9.358-3.49c-2.251-2.327-3.375-5.531-3.375-9.613   c0-4.191,1.044-7.485,3.13-9.88c2.089-2.397,4.956-3.597,8.605-3.597c3.387,0,6.061,1.028,8.025,3.086   c1.963,2.056,2.944,4.886,2.944,8.489v2.944h-17.093c0.078,2.49,0.75,4.402,2.019,5.74c1.266,1.338,3.053,2.006,5.357,2.006   c1.516,0,2.926-0.143,4.231-0.429c1.307-0.285,2.709-0.763,4.211-1.427v4.431c-1.331,0.633-2.676,1.082-4.036,1.344   C208.551,118.359,206.998,118.491,205.252,118.491z M204.254,96.04c-1.732,0-3.121,0.549-4.163,1.647   c-1.043,1.097-1.667,2.698-1.867,4.8h11.644c-0.032-2.118-0.542-3.722-1.531-4.812C207.345,96.585,205.985,96.04,204.254,96.04z"
   id="path4129" />
	<path
   fill="#FFFFFF"
   d="M224.018,118.027h-5.451V81.938h5.451V118.027z"
   id="path4131" />
	<path
   fill="#FFFFFF"
   d="M251.713,105.156c0,4.189-1.076,7.458-3.225,9.81c-2.148,2.351-5.14,3.525-8.975,3.525   c-2.397,0-4.515-0.542-6.355-1.624c-1.841-1.081-3.254-2.637-4.245-4.661c-0.989-2.025-1.484-4.377-1.484-7.05   c0-4.16,1.068-7.407,3.202-9.741c2.134-2.337,5.14-3.504,9.021-3.504c3.711,0,6.648,1.195,8.813,3.583   C250.629,97.884,251.713,101.104,251.713,105.156z M233.043,105.156c0,5.92,2.187,8.882,6.563,8.882   c4.328,0,6.494-2.962,6.494-8.882c0-5.862-2.181-8.792-6.541-8.792c-2.289,0-3.946,0.758-4.977,2.273   C233.555,100.153,233.043,102.326,233.043,105.156z"
   id="path4133" />
	<path
   fill="#FFFFFF"
   d="M277.693,118.027h-5.474v-15.771c0-1.979-0.399-3.455-1.195-4.429c-0.798-0.975-2.062-1.463-3.792-1.463   c-2.305,0-3.989,0.682-5.057,2.041c-1.066,1.36-1.602,3.643-1.602,6.843v12.779h-5.449V92.375h4.268l0.767,3.364h0.278   c0.771-1.223,1.87-2.165,3.291-2.829c1.424-0.666,3.001-0.999,4.731-0.999c6.155,0,9.233,3.133,9.233,9.395V118.027z"
   id="path4135" />
	<path
   fill="#FFFFFF"
   d="M298.475,118.027l-1.089-3.572h-0.186c-1.239,1.562-2.482,2.626-3.735,3.189   c-1.252,0.564-2.86,0.847-4.823,0.847c-2.522,0-4.489-0.682-5.902-2.041c-1.416-1.36-2.123-3.286-2.123-5.774   c0-2.645,0.981-4.639,2.946-5.984c1.963-1.345,4.954-2.079,8.975-2.204l4.43-0.139v-1.367c0-1.641-0.383-2.865-1.146-3.678   c-0.767-0.812-1.952-1.218-3.562-1.218c-1.315,0-2.573,0.193-3.779,0.581c-1.206,0.386-2.367,0.843-3.48,1.367l-1.763-3.896   c1.392-0.727,2.915-1.278,4.569-1.658c1.653-0.379,3.216-0.568,4.686-0.568c3.262,0,5.726,0.711,7.387,2.134   c1.662,1.424,2.493,3.657,2.493,6.704v17.278H298.475z M290.358,114.316c1.978,0,3.568-0.553,4.765-1.659   c1.199-1.104,1.8-2.655,1.8-4.649v-2.227l-3.295,0.139c-2.566,0.093-4.433,0.521-5.6,1.288c-1.169,0.765-1.752,1.937-1.752,3.514   c0,1.144,0.34,2.028,1.021,2.655C287.975,114.003,288.996,114.316,290.358,114.316z"
   id="path4137" />
</g>
<g
   id="g4139">
	<path
   fill="#FFFFFF"
   d="M113.151,40.478h15.519v19.38c-4.214,1.443-8.845,2.164-13.894,2.164c-5.544,0-9.826-1.606-12.851-4.82   c-3.026-3.213-4.539-7.795-4.539-13.748c0-5.804,1.655-10.321,4.97-13.551c3.31-3.229,7.95-4.845,13.919-4.845   c2.264,0,4.397,0.213,6.407,0.639c2.008,0.427,3.757,0.968,5.249,1.624l-3.072,7.624c-2.591-1.279-5.437-1.918-8.535-1.918   c-2.835,0-5.028,0.922-6.58,2.767c-1.547,1.845-2.322,4.48-2.322,7.906c0,3.361,0.701,5.924,2.104,7.687   c1.401,1.763,3.422,2.643,6.061,2.643c1.443,0,2.771-0.138,3.985-0.417v-5.633h-6.42V40.478z"
   id="path4141" />
	<path
   fill="#FFFFFF"
   d="M163.499,42.789c0,6.002-1.651,10.625-4.956,13.871c-3.303,3.246-7.949,4.87-13.931,4.87h-11.634V25.573   h12.444c5.771,0,10.226,1.476,13.367,4.427C161.929,32.952,163.499,37.215,163.499,42.789z M153.414,43.135   c0-3.297-0.648-5.739-1.953-7.33c-1.305-1.589-3.282-2.386-5.939-2.386h-2.828v20.144h2.164c2.95,0,5.115-0.857,6.494-2.571   C152.728,49.278,153.414,46.66,153.414,43.135z"
   id="path4143" />
	<path
   fill="#FFFFFF"
   d="M181.357,40.478h15.52v19.38c-4.216,1.443-8.847,2.164-13.896,2.164c-5.542,0-9.825-1.606-12.851-4.82   c-3.026-3.213-4.537-7.795-4.537-13.748c0-5.804,1.655-10.321,4.967-13.551c3.312-3.229,7.951-4.845,13.922-4.845   c2.262,0,4.397,0.213,6.405,0.639c2.007,0.427,3.759,0.968,5.251,1.624l-3.073,7.624c-2.592-1.279-5.437-1.918-8.535-1.918   c-2.837,0-5.03,0.922-6.579,2.767c-1.55,1.845-2.323,4.48-2.323,7.906c0,3.361,0.701,5.924,2.103,7.687   c1.4,1.763,3.423,2.643,6.062,2.643c1.443,0,2.772-0.138,3.985-0.417v-5.633h-6.42V40.478z"
   id="path4145" />
</g>
</svg>